<svg width="22" height="22" viewBox="0 0 22 22" fill="none" xmlns="http://www.w3.org/2000/svg">
<path d="M4.26437 15.6732C3.65882 15.6535 3.0622 15.5024 2.50666 15.2282C0.848826 14.3655 -0.178252 12.3574 0.0256927 10.3613C0.244355 8.21358 1.61519 6.50378 3.44754 6.0981C3.60245 6.05837 3.76074 6.03797 3.91956 6.03725C4.08987 6.03725 4.14558 5.95492 4.19184 5.78311C5.03284 2.6427 6.88306 0.73125 9.712 0.126316C12.4621 -0.461913 15.2627 1.04505 16.725 3.79768C16.7535 3.86377 16.7965 3.92043 16.8499 3.96221C16.9033 4.004 16.9652 4.02952 17.0298 4.03631C17.87 4.17001 18.6353 4.65677 19.1743 5.40027C19.7134 6.14378 19.9869 7.08986 19.9408 8.05131C19.9298 8.12416 19.9426 8.19905 19.9769 8.2619C20.0112 8.32474 20.0645 8.37121 20.1268 8.39256C20.749 8.74048 21.261 9.29862 21.5923 9.99024C21.9236 10.6819 22.058 11.473 21.977 12.2548C21.8959 13.0846 21.5773 13.8612 21.0702 14.4659C20.5631 15.0706 19.8953 15.4699 19.1691 15.6028C18.8727 15.6601 18.5668 15.6565 18.2304 15.6828V15.9441C18.2304 17.327 18.2062 18.711 18.2377 20.0939C18.2437 20.3406 18.2052 20.5862 18.1245 20.8154C18.0439 21.0446 17.9228 21.2527 17.7687 21.4269C17.6147 21.6011 17.4309 21.7377 17.2286 21.8284C17.0263 21.919 16.8099 21.9618 16.5925 21.9541C13.0361 21.9457 9.47862 21.9541 5.92115 21.9541C4.92456 21.9541 4.27173 21.2226 4.26647 20.0879C4.25911 18.7218 4.26647 17.3544 4.26647 15.9882L4.26437 15.6732ZM4.26437 14.8094V14.4646C4.26437 13.4504 4.25701 12.4362 4.26437 11.4232C4.27488 10.31 4.92246 9.59049 5.89487 9.59049H16.6345C17.5649 9.59049 18.223 10.3303 18.2272 11.3802C18.2314 12.4302 18.2272 13.4778 18.2272 14.5254V14.8094C18.4059 14.8094 18.5499 14.8094 18.6929 14.8094C19.7074 14.7605 20.4801 14.2283 20.9468 13.2177C21.4136 12.2071 21.3673 11.1667 20.828 10.1847C20.5094 9.6153 20.0263 9.1893 19.4614 8.97959C19.1796 8.86624 19.1145 8.71709 19.167 8.38301C19.1873 8.2392 19.2003 8.0942 19.2059 7.9487C19.2879 6.39759 18.1683 4.93954 16.807 4.84647C16.677 4.84827 16.5494 4.80731 16.4395 4.72854C16.3296 4.64977 16.2422 4.53657 16.1878 4.40262C15.7323 3.4831 15.0989 2.6929 14.3353 2.09157C13.5716 1.49025 12.6977 1.09347 11.7794 0.931141C10.861 0.768816 9.92222 0.845177 9.03365 1.15447C8.14508 1.46376 7.32995 1.99791 6.64968 2.71667C5.71551 3.68506 5.07492 4.96378 4.81944 6.37014C4.7448 6.76866 4.65018 6.84741 4.29381 6.85576C4.05226 6.8535 3.81109 6.87787 3.57369 6.92854C2.15975 7.29962 1.21677 8.27563 0.861439 9.87327C0.506113 11.4709 0.928722 12.812 2.00731 13.8823C2.62938 14.504 3.43582 14.8353 4.26437 14.8094ZM17.5018 13.139H5.00761V13.4146C5.00761 15.6315 5.00761 17.8488 5.00761 20.0665C5.00761 20.7692 5.30512 21.1081 5.92431 21.1081C9.47406 21.1081 13.0238 21.1081 16.5736 21.1081C17.1959 21.1081 17.5018 20.7561 17.5018 20.0438V13.139ZM5.01181 12.262H17.5008V11.5246C17.5008 10.7753 17.1854 10.4233 16.5263 10.4233H5.96847C5.90855 10.4233 5.84756 10.4233 5.78764 10.4233C5.38186 10.4555 5.0402 10.7908 5.01392 11.218C4.99079 11.5544 5.01181 11.904 5.01181 12.262Z" fill="#646464" fill-opacity="0.9"/>
<path d="M12.2645 14.3129C12.2319 14.4394 12.2182 14.5146 12.1941 14.5862C11.5836 16.3751 10.9725 18.1649 10.3607 19.9554C10.2682 20.2239 10.1063 20.3372 9.91493 20.2847C9.66368 20.2155 9.56803 19.9745 9.67526 19.6547C9.90338 18.9746 10.1378 18.2981 10.3701 17.6192C10.7493 16.5056 11.1291 15.3963 11.5097 14.2915C11.6264 13.9514 11.8787 13.8273 12.0879 14.0182C12.1605 14.1049 12.2201 14.2045 12.2645 14.3129Z" fill="#646464" fill-opacity="0.9"/>
<path d="M7.7739 17.161L8.96288 18.2074C9.02806 18.2658 9.09534 18.3267 9.15842 18.3828C9.34764 18.5701 9.37603 18.7968 9.23726 18.9925C9.09849 19.1882 8.89034 19.2025 8.69375 19.0307C8.26064 18.6572 7.83382 18.2754 7.40386 17.8972C7.26088 17.7707 7.11371 17.6502 6.97495 17.5165C6.76469 17.3113 6.75103 17.0393 6.96338 16.8352C7.53737 16.278 8.11977 15.7292 8.70112 15.1839C8.73575 15.1434 8.77757 15.1116 8.82381 15.0908C8.87006 15.07 8.91968 15.0606 8.96938 15.0632C9.01908 15.0658 9.06773 15.0803 9.1121 15.1059C9.15647 15.1314 9.19555 15.1674 9.22675 15.2113C9.37393 15.3987 9.36236 15.6373 9.17208 15.8222C8.75158 16.2303 8.33107 16.6264 7.90426 17.0285C7.86536 17.0655 7.82962 17.1061 7.7739 17.161Z" fill="#646464" fill-opacity="0.9"/>
<path d="M14.0987 17.154L12.8971 16.0169C12.8278 15.9513 12.7563 15.8869 12.6869 15.8153C12.5176 15.6327 12.4987 15.4025 12.6354 15.2187C12.6658 15.1739 12.7043 15.137 12.7482 15.1104C12.7922 15.0838 12.8406 15.0681 12.8904 15.0643C12.9401 15.0606 12.9899 15.0689 13.0366 15.0888C13.0833 15.1086 13.1257 15.1395 13.161 15.1793C13.7504 15.729 14.336 16.2858 14.9177 16.8498C14.9631 16.887 15 16.9362 15.0251 16.9931C15.0502 17.05 15.0628 17.1129 15.0619 17.1765C15.061 17.2401 15.0465 17.3026 15.0197 17.3585C14.993 17.4144 14.9547 17.4621 14.9082 17.4977C14.3237 18.0274 13.7329 18.5484 13.1358 19.0607C13.0966 19.096 13.0515 19.1217 13.0032 19.1362C12.9548 19.1507 12.9044 19.1537 12.855 19.145C12.8056 19.1362 12.7583 19.1159 12.7162 19.0854C12.6741 19.0549 12.6379 19.0148 12.6101 18.9676C12.5818 18.9242 12.5616 18.8746 12.5506 18.8221C12.5396 18.7695 12.538 18.7149 12.5461 18.6616C12.5542 18.6083 12.5716 18.5575 12.5974 18.512C12.6233 18.4666 12.6569 18.4276 12.6964 18.3973C13.0916 18.0394 13.4943 17.6898 13.8937 17.3366C13.9642 17.2829 14.0304 17.2232 14.0987 17.154Z" fill="#646464" fill-opacity="0.9"/>
<path d="M16.0621 11.7847C15.9791 11.7792 15.8965 11.7668 15.815 11.7477C15.768 11.7327 15.7242 11.7068 15.6863 11.6716C15.6485 11.6365 15.6176 11.5928 15.5953 11.5434C15.5731 11.494 15.5602 11.4398 15.5573 11.3845C15.5544 11.3291 15.5616 11.2736 15.5785 11.2215C15.6647 10.9734 15.8466 10.928 16.0568 10.9292C16.2671 10.9304 16.4668 10.9531 16.5604 11.218C16.5782 11.2697 16.5864 11.325 16.5843 11.3805C16.5822 11.4359 16.5699 11.4903 16.5482 11.54C16.5266 11.5898 16.496 11.6339 16.4584 11.6694C16.4209 11.705 16.3772 11.7313 16.3302 11.7465C16.2418 11.7672 16.1522 11.7799 16.0621 11.7847Z" fill="#646464" fill-opacity="0.9"/>
<path d="M14.767 10.9364C14.788 10.9364 14.9037 10.9232 14.9583 10.9805C15.0635 11.0867 15.1791 11.2275 15.1959 11.3683C15.2296 11.6546 15.0099 11.7954 14.6198 11.7799C14.3234 11.7692 14.1699 11.6081 14.1857 11.3277C14.2014 11.0473 14.3665 10.9352 14.767 10.9364Z" fill="#646464" fill-opacity="0.9"/>
</svg>
