<svg width="19" height="20" viewBox="0 0 19 20" fill="none" xmlns="http://www.w3.org/2000/svg">
<g clip-path="url(#clip0_41_24303)">
<path d="M2.74177 2.36997C2.74177 1.97417 2.74177 1.6022 2.74177 1.23501C2.74482 0.980372 2.82377 0.732765 2.96805 0.525366C3.11232 0.317967 3.31502 0.160684 3.549 0.0745731C3.78298 -0.0115382 4.03707 -0.0223591 4.27722 0.0435607C4.51737 0.109481 4.73212 0.248987 4.89271 0.443404C5.08289 0.660914 5.18742 0.943027 5.18602 1.23501C5.18602 1.59267 5.18602 1.95032 5.18602 2.30797C5.18602 2.30797 5.18602 2.33182 5.20929 2.35566H8.29139C8.29139 2.00755 8.29139 1.66897 8.29139 1.33039C8.28026 1.053 8.3573 0.779386 8.51092 0.550659C8.66455 0.321932 8.88648 0.150436 9.14338 0.061912C9.32717 0.00145996 9.52226 -0.0139696 9.71294 0.016856C9.90362 0.0476817 10.0846 0.123905 10.2413 0.2394C10.3979 0.354895 10.526 0.506435 10.6151 0.681839C10.7042 0.857243 10.7519 1.05161 10.7543 1.24932C10.7543 1.61174 10.7543 1.97894 10.7543 2.35566H13.855C13.855 1.97894 13.855 1.61175 13.855 1.24456C13.862 0.951554 13.9686 0.670237 14.1564 0.449123C14.3443 0.228009 14.6015 0.0809512 14.8839 0.0333009C15.1505 -0.0159848 15.4256 0.0288773 15.6641 0.160552C15.9026 0.292227 16.0904 0.502912 16.1968 0.758141C16.2663 0.959127 16.3055 1.16977 16.3132 1.38284C16.3132 1.70235 16.3132 2.02185 16.3132 2.36997H17.1093C17.5503 2.3626 17.9795 2.51577 18.3205 2.80221C18.6616 3.08864 18.8923 3.48974 18.9716 3.93411C18.9902 4.04276 18.9995 4.15285 18.9995 4.26315V18.0924C18.9995 18.5983 18.8033 19.0835 18.4541 19.4412C18.1048 19.799 17.6312 19.9999 17.1373 19.9999H1.85252C1.35861 19.9999 0.884932 19.799 0.535685 19.4412C0.186438 19.0835 -0.00976561 18.5983 -0.00976561 18.0924V4.26315C-0.00982064 3.76217 0.182546 3.28128 0.525774 2.92436C0.869003 2.56745 1.33554 2.36318 1.82459 2.35566L2.74177 2.36997ZM18.3012 6.76195H0.697906V17.9351C0.677906 18.1173 0.698225 18.3017 0.757367 18.4748C0.816509 18.6479 0.912949 18.805 1.03953 18.9347C1.1661 19.0643 1.31957 19.1631 1.48852 19.2237C1.65748 19.2843 1.83758 19.3051 2.01547 19.2846H16.9836C17.1619 19.3052 17.3425 19.2843 17.5118 19.2235C17.6812 19.1627 17.8349 19.0634 17.9616 18.9332C18.0883 18.803 18.1846 18.6452 18.2434 18.4715C18.3022 18.2979 18.3219 18.1129 18.3012 17.9303V6.76195ZM18.3012 6.03234C18.3012 5.42671 18.3012 4.82587 18.3012 4.22501C18.2969 3.93395 18.1849 3.65541 17.9879 3.44564C17.7909 3.23586 17.5235 3.11048 17.2397 3.09481C16.3598 3.0662 15.4845 3.09481 14.5766 3.09481C14.5766 3.31417 14.5766 3.51923 14.5766 3.72428C14.5704 3.81218 14.5849 3.90032 14.619 3.98125C14.653 4.06217 14.7057 4.13349 14.7723 4.18916C14.839 4.24484 14.9178 4.28323 15.0021 4.30109C15.0863 4.31895 15.1736 4.31575 15.2563 4.29176C15.3253 4.27546 15.3969 4.27546 15.4659 4.29176C15.546 4.30792 15.6174 4.3539 15.6664 4.42082C15.7154 4.48774 15.7385 4.57087 15.7312 4.65419C15.7312 4.87355 15.5636 4.97369 15.3727 5.01184C15.1933 5.05218 15.0074 5.05113 14.8285 5.00877C14.6495 4.96642 14.4819 4.88382 14.338 4.76696C14.194 4.6501 14.0773 4.50191 13.9962 4.33312C13.915 4.16433 13.8716 3.97917 13.8689 3.79105C13.8689 3.56215 13.8689 3.33802 13.8689 3.11866H9.03164V3.73383C9.02341 3.8218 9.03643 3.9105 9.06955 3.9921C9.10268 4.07371 9.1549 4.1457 9.22159 4.20177C9.28829 4.25783 9.36742 4.29623 9.45202 4.31359C9.53662 4.33095 9.6241 4.32672 9.70673 4.30129C9.77587 4.28704 9.84709 4.28704 9.91623 4.30129C9.99598 4.3164 10.0674 4.36143 10.1165 4.42757C10.1655 4.49371 10.1888 4.5762 10.1816 4.65895C10.1816 4.87831 10.0233 4.96892 9.85106 5.02137C9.68739 5.06473 9.51668 5.07264 9.34986 5.04457C9.18304 5.01651 9.02377 4.9531 8.88224 4.8584C8.74071 4.7637 8.62002 4.63978 8.5279 4.49459C8.43578 4.34939 8.37425 4.18612 8.34725 4.01518C8.30535 3.72429 8.31466 3.42863 8.29604 3.13297H3.44478V3.72906C3.43462 3.81892 3.44651 3.90997 3.47939 3.99394C3.51227 4.0779 3.56508 4.15214 3.63305 4.20992C3.70102 4.26769 3.78198 4.30717 3.86861 4.3248C3.95525 4.34242 4.04481 4.33763 4.12917 4.31084C4.37592 4.26792 4.53422 4.35375 4.59474 4.55881C4.61093 4.61066 4.61566 4.66555 4.60859 4.7195C4.60152 4.77346 4.58282 4.82512 4.55386 4.87077C4.52489 4.91641 4.48639 4.95488 4.44112 4.98341C4.39585 5.01193 4.34496 5.02978 4.29212 5.03568C4.11435 5.08299 3.92847 5.08874 3.74824 5.05249C3.56801 5.01624 3.39805 4.93891 3.25095 4.82625C3.10385 4.71359 2.98339 4.56848 2.89847 4.40167C2.81355 4.23485 2.76636 4.05061 2.76039 3.86258C2.76039 3.62891 2.76039 3.38571 2.76039 3.14727C2.41463 3.12573 2.06792 3.12573 1.72216 3.14727C1.46928 3.17272 1.23293 3.28754 1.05368 3.47201C0.874427 3.65648 0.763457 3.8991 0.739806 4.15824C0.711059 4.49119 0.703282 4.8257 0.716526 5.15967C0.716526 5.4601 0.716526 5.76052 0.716526 6.07526L18.3012 6.03234ZM4.483 2.3652C4.483 1.96939 4.483 1.60221 4.483 1.23025C4.47532 1.10636 4.4238 0.989575 4.3381 0.901793C4.2524 0.814011 4.13839 0.761253 4.01743 0.753382C3.89655 0.734055 3.77309 0.764234 3.67377 0.837411C3.57445 0.910587 3.50724 1.02087 3.48668 1.14441C3.44943 1.54975 3.48668 1.96462 3.48668 2.3795L4.483 2.3652ZM9.01768 2.3652H10.028C10.028 1.95986 10.028 1.56405 10.028 1.17302C10.015 1.04806 9.95448 0.933387 9.85945 0.853914C9.76443 0.774441 9.64261 0.736599 9.52049 0.748608C9.39463 0.749537 9.27379 0.799226 9.18224 0.887691C9.09069 0.976156 9.03522 1.09684 9.02699 1.22548C9.03165 1.58313 9.03164 1.95986 9.03164 2.35089L9.01768 2.3652ZM15.6055 2.3652C15.6055 1.96462 15.6055 1.5879 15.6055 1.21117C15.5978 1.08728 15.5463 0.970511 15.4606 0.882729C15.3749 0.794946 15.2609 0.742175 15.1399 0.734303C15.0791 0.726292 15.0173 0.730685 14.9581 0.747226C14.8989 0.763767 14.8435 0.792131 14.795 0.830687C14.7465 0.869243 14.706 0.917221 14.6757 0.97188C14.6454 1.02654 14.626 1.0868 14.6185 1.14918C14.6185 1.54975 14.6185 1.95986 14.6185 2.36997L15.6055 2.3652Z" fill="#4E4E4E"/>
<path d="M4.20439 16.2614H3.13823C2.86354 16.2614 2.7425 16.1327 2.7425 15.8465C2.7425 15.1884 2.7425 14.5256 2.7425 13.8627C2.73419 13.8088 2.7382 13.7537 2.75422 13.7016C2.77025 13.6495 2.79785 13.602 2.83485 13.5627C2.87185 13.5234 2.91725 13.4935 2.96747 13.4752C3.01769 13.4569 3.07136 13.4508 3.12426 13.4574C3.85055 13.4574 4.57685 13.4574 5.30314 13.4574C5.56386 13.4574 5.69422 13.61 5.69887 13.8866C5.69887 14.5415 5.69887 15.1948 5.69887 15.8465C5.70584 15.9025 5.70012 15.9594 5.68215 16.0127C5.66419 16.066 5.63446 16.1144 5.59528 16.1541C5.55611 16.1938 5.50853 16.2236 5.45625 16.2414C5.40397 16.2592 5.34839 16.2644 5.29383 16.2566C4.93068 16.2662 4.56754 16.2614 4.20439 16.2614ZM3.44551 14.1965V15.527H4.9493V14.1965H3.44551Z" fill="#4E4E4E"/>
<path d="M9.14401 16.2614H8.10113C7.7892 16.2614 7.65884 16.1326 7.65884 15.8179C7.65884 15.1821 7.65884 14.5462 7.65884 13.9104C7.64976 13.8507 7.65433 13.7896 7.67219 13.7319C7.69005 13.6743 7.72071 13.6217 7.76177 13.5783C7.80282 13.5348 7.85316 13.5017 7.90881 13.4816C7.96446 13.4614 8.02392 13.4548 8.08251 13.4621H10.1915C10.4895 13.4621 10.6152 13.6004 10.6152 13.9008V15.8417C10.6152 16.1469 10.4988 16.2661 10.1915 16.2709L9.14401 16.2614ZM8.41306 14.2013V15.527H9.92618V14.2013H8.41306Z" fill="#4E4E4E"/>
<path d="M14.1025 16.2613H13.0363C12.757 16.2613 12.6359 16.1325 12.6359 15.8512C12.6359 15.1883 12.6359 14.5303 12.6359 13.8674C12.6278 13.8133 12.6319 13.758 12.6479 13.7058C12.6639 13.6535 12.6914 13.6058 12.7283 13.5662C12.7652 13.5265 12.8105 13.4961 12.8606 13.4773C12.9108 13.4584 12.9645 13.4516 13.0177 13.4573C13.744 13.4573 14.4656 13.4573 15.1919 13.4573C15.247 13.4518 15.3027 13.4591 15.3547 13.4787C15.4067 13.4983 15.4537 13.5297 15.4922 13.5705C15.5307 13.6113 15.5597 13.6605 15.577 13.7143C15.5943 13.7682 15.5996 13.8255 15.5923 13.8817C15.5923 14.5366 15.5923 15.1899 15.5923 15.8417C15.5923 16.1278 15.4526 16.2565 15.1686 16.2613H14.1025ZM13.3436 15.5222H14.8567V14.206H13.3436V15.5222Z" fill="#4E4E4E"/>
<path d="M9.15784 8.39779H10.2473C10.3001 8.39059 10.3538 8.39603 10.4042 8.41368C10.4547 8.43134 10.5004 8.46073 10.5378 8.49955C10.5753 8.53837 10.6034 8.58556 10.6201 8.63741C10.6367 8.68925 10.6414 8.74436 10.6337 8.79836V10.8012C10.6398 10.8557 10.6337 10.911 10.6158 10.9627C10.598 11.0145 10.569 11.0614 10.5309 11.1C10.4927 11.1386 10.4466 11.1678 10.3959 11.1854C10.3451 11.203 10.2911 11.2086 10.238 11.2018H8.101C8.04618 11.2077 7.99078 11.201 7.93877 11.1823C7.88677 11.1636 7.83947 11.1334 7.80028 11.0937C7.76109 11.054 7.73098 11.0059 7.71213 10.9528C7.69329 10.8998 7.68617 10.8431 7.69129 10.7869C7.69129 10.1241 7.69129 9.4612 7.69129 8.80312C7.68574 8.74681 7.69281 8.68994 7.71196 8.63685C7.7311 8.58376 7.76183 8.53586 7.80179 8.49677C7.84175 8.45768 7.88989 8.42844 7.94255 8.41128C7.9952 8.39413 8.05099 8.38952 8.10565 8.39779H9.15784ZM9.92605 9.12741H8.40828V10.4626H9.92605V9.12741Z" fill="#4E4E4E"/>
<path d="M14.0886 11.2018H13.0457C12.9896 11.2099 12.9325 11.2045 12.8789 11.1859C12.8252 11.1674 12.7766 11.1362 12.7368 11.095C12.6969 11.0538 12.6671 11.0036 12.6496 10.9484C12.6321 10.8933 12.6275 10.8347 12.636 10.7774C12.636 10.1241 12.636 9.46599 12.636 8.81267C12.636 8.52178 12.757 8.39779 13.0504 8.39779H15.1827C15.2372 8.39001 15.2928 8.39522 15.3451 8.413C15.3974 8.43079 15.4449 8.46067 15.4841 8.50033C15.5233 8.54 15.553 8.58838 15.571 8.64172C15.589 8.69506 15.5947 8.75192 15.5877 8.8079C15.5877 9.46598 15.5877 10.1288 15.5877 10.7917C15.593 10.8477 15.5859 10.9042 15.567 10.9571C15.5482 11.01 15.518 11.0578 15.4787 11.0972C15.4394 11.1365 15.392 11.1663 15.3399 11.1844C15.2879 11.2025 15.2326 11.2085 15.178 11.2018H14.0886ZM13.3437 9.12263V10.4531H14.8568V9.12263H13.3437Z" fill="#4E4E4E"/>
<path d="M4.21374 8.39783H5.30784C5.35895 8.3922 5.41063 8.39804 5.45931 8.41495C5.50799 8.43185 5.55249 8.45942 5.58972 8.49573C5.62694 8.53204 5.65598 8.57622 5.67484 8.62519C5.6937 8.67417 5.70192 8.72676 5.69892 8.77932C5.69892 9.45171 5.69892 10.1289 5.69892 10.806C5.70346 10.8604 5.6961 10.9152 5.67738 10.9663C5.65866 11.0174 5.62904 11.0636 5.59069 11.1015C5.55233 11.1394 5.50621 11.1681 5.45567 11.1855C5.40513 11.2028 5.35144 11.2084 5.29853 11.2018H3.14293C3.0882 11.2083 3.03274 11.2018 2.98086 11.1828C2.92898 11.1638 2.88209 11.1328 2.84381 11.0922C2.80553 11.0516 2.7769 11.0025 2.76014 10.9487C2.74339 10.895 2.73896 10.838 2.74719 10.7822C2.74719 10.1273 2.74719 9.47396 2.74719 8.82224C2.74719 8.51227 2.86824 8.39783 3.17552 8.39783H4.21374ZM4.95866 10.4579V9.1322H3.44555V10.4579H4.95866Z" fill="#4E4E4E"/>
</g>
<defs>
<clipPath id="clip0_41_24303">
<rect width="19" height="20" fill="white"/>
</clipPath>
</defs>
</svg>
