<svg width="22" height="22" viewBox="0 0 22 22" fill="none" xmlns="http://www.w3.org/2000/svg">
<path d="M7.71016 0H2.44369C1.79564 0.00067095 1.17434 0.257935 0.716184 0.715315C0.258025 1.17269 0.000447972 1.79281 0 2.43953V7.69352C0.000447972 8.34024 0.258025 8.96036 0.716184 9.41774C1.17434 9.87512 1.79564 10.1324 2.44369 10.1331H7.71016C8.3582 10.1324 8.9795 9.87512 9.43766 9.41774C9.89582 8.96036 10.1534 8.34024 10.1538 7.69352V2.43953C10.1534 1.79281 9.89582 1.17269 9.43766 0.715315C8.9795 0.257935 8.3582 0.00067095 7.71016 0ZM8.46154 7.69352C8.46154 7.89247 8.3824 8.08328 8.24152 8.22404C8.10063 8.3648 7.90951 8.44399 7.71016 8.44421H2.44369C2.24434 8.44399 2.05322 8.3648 1.91233 8.22404C1.77144 8.08328 1.69231 7.89247 1.69231 7.69352V2.43953C1.69231 2.24058 1.77144 2.04977 1.91233 1.90901C2.05322 1.76825 2.24434 1.68907 2.44369 1.68884H7.71016C7.90951 1.68907 8.10063 1.76825 8.24152 1.90901C8.3824 2.04977 8.46154 2.24058 8.46154 2.43953V7.69352Z" fill="#646464" fill-opacity="0.9"/>
<path d="M19.5559 0H14.2894C13.6413 0.00067095 13.02 0.257935 12.5619 0.715315C12.1037 1.17269 11.8462 1.79281 11.8457 2.43953V7.69352C11.8462 8.34024 12.1037 8.96036 12.5619 9.41774C13.02 9.87512 13.6413 10.1324 14.2894 10.1331H19.5559C20.2039 10.1324 20.8252 9.87512 21.2834 9.41774C21.7415 8.96036 21.9991 8.34024 21.9995 7.69352V2.43953C21.9991 1.79281 21.7415 1.17269 21.2834 0.715315C20.8252 0.257935 20.2039 0.00067095 19.5559 0ZM20.3072 7.69352C20.3072 7.89247 20.2281 8.08328 20.0872 8.22404C19.9463 8.3648 19.7552 8.44399 19.5559 8.44421H14.2894C14.09 8.44399 13.8989 8.3648 13.758 8.22404C13.6171 8.08328 13.538 7.89247 13.538 7.69352V2.43953C13.538 2.24058 13.6171 2.04977 13.758 1.90901C13.8989 1.76825 14.09 1.68907 14.2894 1.68884H19.5559C19.7552 1.68907 19.9463 1.76825 20.0872 1.90901C20.2281 2.04977 20.3072 2.24058 20.3072 2.43953V7.69352Z" fill="#646464" fill-opacity="0.9"/>
<path d="M19.5559 11.822H14.2894C13.6413 11.8227 13.02 12.08 12.5619 12.5373C12.1037 12.9947 11.8462 13.6148 11.8457 14.2616V19.5155C11.8462 20.1623 12.1037 20.7824 12.5619 21.2398C13.02 21.6971 13.6413 21.9544 14.2894 21.9551H19.5559C20.2039 21.9544 20.8252 21.6971 21.2834 21.2398C21.7415 20.7824 21.9991 20.1623 21.9995 19.5155V14.2616C21.9991 13.6148 21.7415 12.9947 21.2834 12.5373C20.8252 12.08 20.2039 11.8227 19.5559 11.822ZM20.3072 19.5155C20.3072 19.7145 20.2281 19.9053 20.0872 20.0461C19.9463 20.1868 19.7552 20.266 19.5559 20.2662H14.2894C14.09 20.266 13.8989 20.1868 13.758 20.0461C13.6171 19.9053 13.538 19.7145 13.538 19.5155V14.2616C13.538 14.0626 13.6171 13.8718 13.758 13.731C13.8989 13.5903 14.09 13.5111 14.2894 13.5109H19.5559C19.7552 13.5111 19.9463 13.5903 20.0872 13.731C20.2281 13.8718 20.3072 14.0626 20.3072 14.2616V19.5155Z" fill="#646464" fill-opacity="0.9"/>
<path d="M7.71016 11.8218H2.44369C1.79564 11.8224 1.17434 12.0797 0.716184 12.5371C0.258025 12.9945 0.000447972 13.6146 0 14.2613V19.5153C0.000447972 20.162 0.258025 20.7821 0.716184 21.2395C1.17434 21.6969 1.79564 21.9542 2.44369 21.9548H7.71016C8.3582 21.9542 8.9795 21.6969 9.43766 21.2395C9.89582 20.7821 10.1534 20.162 10.1538 19.5153V14.2613C10.1534 13.6146 9.89582 12.9945 9.43766 12.5371C8.9795 12.0797 8.3582 11.8224 7.71016 11.8218ZM8.46154 19.5153C8.46154 19.7142 8.3824 19.9051 8.24152 20.0458C8.10063 20.1866 7.90951 20.2658 7.71016 20.266H2.44369C2.24434 20.2658 2.05322 20.1866 1.91233 20.0458C1.77144 19.9051 1.69231 19.7142 1.69231 19.5153V14.2613C1.69231 14.0624 1.77144 13.8715 1.91233 13.7308C2.05322 13.59 2.24434 13.5108 2.44369 13.5106H7.71016C7.90951 13.5108 8.10063 13.59 8.24152 13.7308C8.3824 13.8715 8.46154 14.0624 8.46154 14.2613V19.5153Z" fill="#646464" fill-opacity="0.9"/>
</svg>
