<svg width="22" height="22" viewBox="0 0 22 22" fill="none" xmlns="http://www.w3.org/2000/svg">
<path d="M12.571 1.37145C11.4867 1.37145 10.6066 2.13994 10.6066 3.08682V4.11603H5.49928C5.29089 4.11603 5.09103 4.18832 4.94368 4.317C4.79632 4.44568 4.71354 4.6202 4.71354 4.80218V9.26211H3.53491C3.01393 9.26211 2.51428 9.44284 2.14589 9.76453C1.7775 10.0862 1.57054 10.5225 1.57054 10.9775C1.57054 11.4324 1.7775 11.8687 2.14589 12.1904C2.51428 12.5121 3.01393 12.6928 3.53491 12.6928H4.71354V17.1528C4.71354 17.3347 4.79632 17.5093 4.94368 17.6379C5.09103 17.7666 5.29089 17.8389 5.49928 17.8389H10.6066V18.8681C10.6066 19.3231 10.8136 19.7594 11.182 20.0811C11.5504 20.4028 12.05 20.5835 12.571 20.5835C13.092 20.5835 13.5916 20.4028 13.96 20.0811C14.3284 19.7594 14.5354 19.3231 14.5354 18.8681V17.8389H19.6428C19.8511 17.8389 20.051 17.7666 20.1984 17.6379C20.3457 17.5093 20.4285 17.3347 20.4285 17.1528V14.0651H19.2499C18.3121 14.0651 17.4127 13.7398 16.7496 13.1608C16.0865 12.5817 15.714 11.7964 15.714 10.9775C15.714 10.1586 16.0865 9.37322 16.7496 8.79418C17.4127 8.21513 18.3121 7.88982 19.2499 7.88982H20.4285V4.80218C20.4285 4.6202 20.3457 4.44568 20.1984 4.317C20.051 4.18832 19.8511 4.11603 19.6428 4.11603H14.5354V3.08682C14.5354 2.13994 13.6554 1.37145 12.571 1.37145ZM9.05715 2.74374C9.15401 1.98912 9.56591 1.29213 10.2141 0.785972C10.8624 0.279817 11.7014 0 12.571 0C13.4406 0 14.2797 0.279817 14.9279 0.785972C15.5761 1.29213 15.988 1.98912 16.0849 2.74374H19.6428C20.2679 2.74374 20.8675 2.96061 21.3096 3.34664C21.7516 3.73267 22 4.25625 22 4.80218V9.26211H19.2499C18.7289 9.26211 18.2293 9.44284 17.8609 9.76453C17.4925 10.0862 17.2855 10.5225 17.2855 10.9775C17.2855 11.4324 17.4925 11.8687 17.8609 12.1904C18.2293 12.5121 18.7289 12.6928 19.2499 12.6928H22V17.1528C22 17.6987 21.7516 18.2223 21.3096 18.6083C20.8675 18.9943 20.2679 19.2112 19.6428 19.2112H16.0849C15.988 19.9658 15.5761 20.6628 14.9279 21.169C14.2797 21.6751 13.4406 21.9549 12.571 21.9549C11.7014 21.9549 10.8624 21.6751 10.2141 21.169C9.56591 20.6628 9.15401 19.9658 9.05715 19.2112H5.49928C4.8741 19.2112 4.27453 18.9943 3.83246 18.6083C3.39039 18.2223 3.14204 17.6987 3.14204 17.1528V14.0459C2.27787 13.9613 1.4797 13.6016 0.900067 13.0356C0.320437 12.4695 0 11.7368 0 10.9775C0 10.2181 0.320437 9.48541 0.900067 8.91935C1.4797 8.3533 2.27787 7.99361 3.14204 7.90904V4.80218C3.14204 4.25625 3.39039 3.73267 3.83246 3.34664C4.27453 2.96061 4.8741 2.74374 5.49928 2.74374H9.05715Z" fill="#646464" fill-opacity="0.9"/>
</svg>
