<svg width="22" height="22" viewBox="0 0 22 22" fill="none" xmlns="http://www.w3.org/2000/svg">
<path d="M11.5327 0C12.0252 0.156519 12.3949 0.483456 12.7528 0.842572C15.6048 3.70234 18.4593 6.55918 21.3162 9.41309C21.5007 9.59814 21.6903 9.80512 21.7949 10.0384C22.4046 11.4047 21.6054 12.9106 20.0529 12.9765C19.9329 12.9816 19.8122 12.9765 19.6614 12.9765V13.2471C19.6614 15.4018 19.6672 17.5565 19.6526 19.7112C19.6438 20.8931 18.5781 21.9397 17.3946 21.9493C16.1987 21.9595 15.002 21.9536 13.8082 21.9493C13.3903 21.9493 13.1275 21.6735 13.1268 21.2369C13.1268 19.5756 13.1268 17.9146 13.1268 16.2539C13.1268 15.4852 12.7037 15.058 11.9359 15.0544C11.3197 15.0544 10.7027 15.069 10.0871 15.0544C9.30029 15.031 8.88895 15.6497 8.89847 16.2465C8.92408 17.8929 8.90724 19.5378 8.90724 21.1864C8.90724 21.7028 8.65913 21.9529 8.14971 21.9536C7.01767 21.9536 5.88562 21.9536 4.75358 21.9536C3.44784 21.9536 2.39461 20.9626 2.37923 19.6585C2.35362 17.5258 2.36973 15.3923 2.36826 13.2588V13.0057C2.09745 12.9809 1.84494 12.9823 1.60487 12.9326C0.851726 12.7673 0.34083 12.3036 0.107347 11.5751C-0.126136 10.8466 0.0253829 10.1906 0.521626 9.61276C0.591158 9.53158 0.66801 9.45698 0.741202 9.38091C3.5713 6.55284 6.4014 3.72233 9.2315 0.88938C9.60331 0.517099 9.97806 0.163103 10.4948 0.00365833L11.5327 0ZM14.4259 20.6649H14.6455C15.4909 20.6649 16.3363 20.6649 17.1816 20.6649C17.9231 20.6649 18.3673 20.2151 18.3673 19.4713C18.3673 17.1157 18.3673 14.7599 18.3673 12.4038C18.3673 11.9489 18.6301 11.6892 19.0883 11.687C19.3898 11.687 19.6907 11.687 19.9915 11.687C20.1576 11.6879 20.319 11.6315 20.4483 11.5273C20.5777 11.4231 20.6671 11.2775 20.7014 11.1151C20.7915 10.7559 20.5938 10.5204 20.3626 10.29C17.4573 7.39078 14.554 4.48956 11.6527 1.5864C11.2004 1.1344 10.8315 1.13294 10.3835 1.57982C7.79498 4.16751 5.20592 6.75471 2.61638 9.34142C2.25627 9.70127 1.8947 10.0582 1.53752 10.4202C1.30404 10.6565 1.2272 10.9322 1.36627 11.2445C1.49948 11.5422 1.74173 11.6834 2.0667 11.6834C2.33898 11.6834 2.61126 11.6834 2.88354 11.6834C3.41418 11.6834 3.66083 11.9276 3.66083 12.4535V19.4559C3.66083 20.2166 4.09999 20.6598 4.85533 20.6613H7.6015C7.6015 20.5537 7.6015 20.4696 7.6015 20.3855C7.60663 18.8964 7.59126 17.4065 7.62347 15.9181C7.64615 14.8796 8.55886 13.8761 9.59379 13.8022C10.5441 13.7341 11.498 13.7341 12.4483 13.8022C13.4788 13.8754 14.3908 14.8993 14.4091 15.9284C14.4347 17.4102 14.4223 18.8927 14.4267 20.3746L14.4259 20.6649Z" fill="#FF3A54"/>
</svg>
