<svg width="22" height="26" viewBox="0 0 22 26" fill="none" xmlns="http://www.w3.org/2000/svg">
<path fill-rule="evenodd" clip-rule="evenodd" d="M11.0518 1.85329C7.01902 1.8314 3.60482 5.27025 3.61044 9.26473L3.61044 9.26603L3.61044 10.1926C3.61044 14.4695 2.7137 17.0452 1.85318 18.5319H20.1468C19.2863 17.0452 18.3896 14.4694 18.3896 10.1926V9.37027C18.3896 5.26454 15.1123 1.88454 11.0518 1.85329ZM1.75726 9.26669C1.75057 4.25012 5.99511 -0.0280614 11.0631 0.000138625L11.0649 0.000149008C16.1772 0.0388802 20.2427 4.27989 20.2427 9.37027V10.1926C20.2427 14.2079 21.083 16.4503 21.7512 17.6044L21.7517 17.6053C21.9141 17.8866 21.9997 18.2056 22 18.5303C22.0003 18.855 21.9152 19.1742 21.7534 19.4557C21.5915 19.7372 21.3585 19.9713 21.0777 20.1344C20.7968 20.2975 20.4781 20.384 20.1533 20.3851L20.1501 20.3851H1.84992L1.84665 20.3851C1.52191 20.384 1.20317 20.2975 0.922352 20.1344C0.64154 19.9713 0.408524 19.7372 0.246647 19.4557C0.0847687 19.1742 -0.000286961 18.8551 7.27379e-07 18.5303C0.000288416 18.2056 0.0859082 17.8866 0.248286 17.6053L0.248837 17.6044C0.917022 16.4502 1.75726 14.2079 1.75726 10.1926V9.26669Z" fill="#252525"/>
<path fill-rule="evenodd" clip-rule="evenodd" d="M7.29364 18.5319C7.80538 18.5319 8.22023 18.9468 8.22023 19.4585V20.3851C8.22023 21.1224 8.5131 21.8294 9.0344 22.3507C9.55571 22.872 10.2628 23.1649 11 23.1649C11.7372 23.1649 12.4443 22.872 12.9656 22.3507C13.4869 21.8294 13.7798 21.1224 13.7798 20.3851V19.4585C13.7798 18.9468 14.1946 18.5319 14.7064 18.5319C15.2181 18.5319 15.633 18.9468 15.633 19.4585V20.3851C15.633 21.6139 15.1448 22.7923 14.276 23.6611C13.4071 24.53 12.2287 25.0181 11 25.0181C9.77126 25.0181 8.59285 24.53 7.72401 23.6611C6.85516 22.7923 6.36705 21.6139 6.36705 20.3851V19.4585C6.36705 18.9468 6.7819 18.5319 7.29364 18.5319Z" fill="#252525"/>
</svg>
