<svg width="22" height="22" viewBox="0 0 22 22" fill="none" xmlns="http://www.w3.org/2000/svg">
<path d="M0.715924 21.9543C0.0696605 21.6785 -0.0571185 21.4391 0.0201858 20.8352C0.130731 19.9773 0.210358 19.1161 0.30467 18.2556C0.402073 17.3618 0.499986 16.4664 0.59842 15.5693C0.692216 14.7092 0.78473 13.8493 0.875949 12.9896C0.972837 12.101 1.07023 11.2126 1.16815 10.3244C1.26143 9.46471 1.35421 8.6046 1.44646 7.74407C1.50211 7.22507 1.54617 6.70544 1.61343 6.18771C1.67372 5.72298 2.05639 5.44528 2.62612 5.44337C3.70838 5.43954 4.79064 5.44337 5.91232 5.44337C5.91232 5.35144 5.91232 5.26973 5.91232 5.18802C5.94556 4.58284 5.91232 3.96808 6.02751 3.37503C6.37306 1.65844 8.2013 0.278911 10.2893 0.0395204C11.5959 -0.109285 12.9215 0.165539 13.988 0.80634C15.0546 1.44714 15.7792 2.40412 16.0098 3.47653C16.0596 3.74442 16.0854 4.01497 16.0871 4.28599C16.0995 4.66263 16.0871 5.04055 16.0871 5.44337H16.3855C17.3634 5.44337 18.3413 5.44337 19.3231 5.44337C19.9856 5.44337 20.3481 5.74787 20.4053 6.29496C20.5105 7.36169 20.6372 8.42713 20.7516 9.49322C20.863 10.5312 20.9689 11.5692 21.0817 12.6066C21.1946 13.6439 21.3136 14.6673 21.4265 15.6976C21.5394 16.7279 21.6453 17.7595 21.7551 18.7899C21.8277 19.4723 21.8911 20.156 21.9792 20.8365C22.0565 21.4615 21.9375 21.6798 21.2881 21.9549L0.715924 21.9543ZM3.45327 7.03611L2.00536 20.3577H19.9948C19.5119 15.9108 19.0293 11.4711 18.5469 7.03867H16.0902C16.0902 7.50404 16.0902 7.95921 16.0902 8.41437C16.093 8.51815 16.0708 8.62136 16.025 8.71803C15.9792 8.8147 15.9106 8.90292 15.8233 8.97759C15.736 9.05226 15.6316 9.11191 15.5162 9.15307C15.4008 9.19424 15.2766 9.21612 15.1509 9.21744C15.0231 9.21941 14.8961 9.2002 14.7773 9.16097C14.6586 9.12175 14.5506 9.06328 14.4597 8.98903C14.3687 8.91477 14.2967 8.82623 14.2479 8.72863C14.1991 8.63103 14.1744 8.52635 14.1754 8.42075C14.1661 8.04921 14.1754 7.67768 14.1754 7.30615V7.04122H7.83642C7.83642 7.12102 7.83642 7.1906 7.83642 7.26018C7.83642 7.65342 7.84492 8.04666 7.83642 8.43926C7.83473 8.54381 7.80789 8.64705 7.75746 8.74296C7.70703 8.83887 7.63402 8.92555 7.54267 8.99795C7.45132 9.07036 7.34346 9.12705 7.22535 9.16473C7.10723 9.20241 6.98123 9.22033 6.85466 9.21744C6.72904 9.21687 6.6048 9.19572 6.48914 9.15523C6.37348 9.11474 6.26869 9.05572 6.18084 8.98157C6.09299 8.90742 6.02382 8.81961 5.97733 8.72324C5.93084 8.62687 5.90796 8.52384 5.91 8.42011C5.90382 8.04858 5.91 7.67704 5.91 7.30551V7.03611H3.45327ZM14.1213 5.43124C14.1213 4.87777 14.1831 4.33196 14.1081 3.79955C13.9535 2.72389 12.9315 1.85634 11.6498 1.63546C11.0108 1.53031 10.3482 1.58804 9.74987 1.80101C9.15151 2.01398 8.64568 2.37213 8.29947 2.82794C7.67562 3.64379 7.85652 4.54071 7.83024 5.43379L14.1213 5.43124Z" fill="#646464" fill-opacity="0.9"/>
</svg>
