<svg width="22" height="22" viewBox="0 0 22 22" fill="none" xmlns="http://www.w3.org/2000/svg">
<path d="M10.8629 21.9549C10.2777 21.6833 9.695 21.407 9.10678 21.1405C6.17851 19.8141 3.2486 18.4904 0.317062 17.1694C0.0844652 17.0645 0 16.9247 0 16.6862C0.00612097 12.8749 0.00612097 9.06364 0 5.25235C0 5.01218 0.0887535 4.87519 0.320738 4.77087C3.795 3.20684 7.26682 1.63804 10.7362 0.0644553C10.8189 0.0221632 10.9116 0 11.0058 0C11.1 0 11.1927 0.0221632 11.2754 0.0644553C14.744 1.63613 18.214 3.20455 21.6854 4.76973C21.9051 4.86889 22.0006 4.999 22 5.23343C21.9947 9.05199 21.9947 12.8705 22 16.6891C22 16.931 21.907 17.0674 21.678 17.1706C18.2405 18.7193 14.8046 20.2715 11.3703 21.8271C11.2895 21.8632 11.2148 21.9102 11.1371 21.9521L10.8629 21.9549ZM21.3083 5.66447C21.2772 5.67049 21.2466 5.67834 21.2165 5.68797C20.2372 6.13047 19.2578 6.57641 18.2723 7.0126C18.1432 7.06992 18.145 7.15131 18.145 7.25276C18.145 8.43983 18.1401 9.62632 18.1499 10.8134C18.1499 11.0633 18.0526 11.2077 17.8151 11.3121C17.0359 11.656 16.2634 12.0085 15.4891 12.3581C15.4426 12.3826 15.3939 12.4032 15.3434 12.4194C15.0631 12.4945 14.8776 12.3329 14.877 12.005C14.877 10.8323 14.8715 9.66014 14.8801 8.4874C14.8801 8.31545 14.825 8.22316 14.6567 8.14693C11.5472 6.74721 8.43919 5.34387 5.3326 3.93689C5.07858 3.82225 4.82333 3.61992 4.56931 3.62107C4.31529 3.62221 4.04413 3.81881 3.7846 3.93574C2.92154 4.32436 2.05971 4.71585 1.16543 5.11994C1.2597 5.16522 1.32458 5.1979 1.3913 5.22828L7.64387 8.05694C7.9591 8.19966 8.27739 8.33723 8.58772 8.4897C8.76829 8.57797 8.81726 8.7333 8.74504 8.91099C8.68383 9.06403 8.48796 9.13396 8.30188 9.07721C8.24499 9.0567 8.18974 9.03238 8.1366 9.00442L0.933448 5.7493C0.86122 5.71663 0.787155 5.6874 0.702073 5.65186C0.697789 5.70918 0.694123 5.73612 0.694123 5.76649C0.694123 9.32712 0.692077 12.8877 0.687996 16.4484C0.687996 16.61 0.779821 16.6513 0.897344 16.7046L10.0102 20.8235C10.2135 20.9158 10.4179 21.004 10.6456 21.1049V14.4239C10.6456 13.0654 10.6456 11.707 10.6499 10.3485C10.6499 10.1898 10.6021 10.1049 10.4424 10.0447C10.2106 9.95342 9.98382 9.85126 9.76295 9.73866C9.56401 9.64065 9.5022 9.47958 9.58299 9.31107C9.66379 9.14255 9.85353 9.0732 10.0647 9.15631C10.2223 9.21009 10.3739 9.27844 10.5171 9.36036C10.8415 9.56728 11.1291 9.54951 11.4793 9.37068C12.0914 9.05543 12.7353 8.79004 13.3682 8.5109C13.6234 8.39627 13.8579 8.48339 13.9099 8.71094C13.9583 8.91614 13.8273 9.02849 13.6479 9.11217C12.9618 9.42169 12.2799 9.73924 11.5888 10.0379C11.4095 10.1152 11.3519 10.2047 11.3519 10.3892C11.3589 13.8784 11.3605 17.3676 11.3568 20.8567V21.1095C11.4358 21.0763 11.4836 21.0573 11.5301 21.0367C14.7338 19.5885 17.9371 18.1417 21.14 16.6966C21.2881 16.6295 21.3083 16.5464 21.3083 16.4151C21.3059 12.8977 21.3059 9.38004 21.3083 5.86222V5.66447ZM8.17823 1.95023C8.28719 2.00411 8.35818 2.04252 8.43163 2.07576C11.5639 3.49229 14.6954 4.90939 17.8261 6.32707C17.8851 6.35701 17.9513 6.37226 18.0184 6.37136C18.0855 6.37046 18.1512 6.35343 18.2093 6.32191C19.016 5.95106 19.8264 5.58824 20.635 5.2214C20.6962 5.19446 20.7513 5.16121 20.834 5.11765L18.732 4.16674C16.2151 3.02877 13.6977 1.89253 11.18 0.758007C11.0961 0.720177 10.9669 0.694384 10.8916 0.727629C9.99554 1.12198 9.10801 1.52894 8.17823 1.95023ZM17.2042 6.77301C17.0732 6.7111 16.9937 6.67213 16.9129 6.63544L13.3333 5.01677C11.4056 4.14515 9.47812 3.27448 7.55083 2.40477C7.47493 2.37038 7.36169 2.33771 7.2968 2.36579C6.66573 2.64207 6.04079 2.93152 5.40482 3.22156C5.42494 3.24152 5.44732 3.25939 5.47154 3.27486C8.68015 4.72693 11.8894 6.17651 15.0992 7.62361C15.1569 7.6486 15.2226 7.65189 15.2828 7.63278C15.9121 7.35937 16.5346 7.07278 17.2042 6.77301ZM15.5779 11.5918C16.1991 11.3109 16.7825 11.0524 17.3585 10.7796C17.4129 10.7538 17.446 10.6403 17.446 10.5675C17.4521 9.57473 17.4503 8.58198 17.4497 7.58693C17.4497 7.53305 17.4442 7.4786 17.4393 7.39262C16.8272 7.66889 16.2389 7.93199 15.655 8.20138C15.6327 8.21749 15.6145 8.23802 15.6017 8.26151C15.5888 8.285 15.5818 8.31086 15.5809 8.33723C15.5766 9.41023 15.5779 10.4809 15.5779 11.5918Z" fill="#646464" fill-opacity="0.9"/>
<path d="M5.16524 14.6963C5.17687 15.0287 4.89958 15.1755 4.62292 15.0557C4.27035 14.9026 3.9233 14.741 3.57379 14.5828C2.96414 14.3077 2.35428 14.0321 1.74422 13.7563C1.49938 13.6451 1.41308 13.4794 1.49938 13.2977C1.59242 13.1045 1.79259 13.0518 2.04355 13.1647C2.99658 13.5929 3.95022 14.0205 4.89775 14.4595C5.01956 14.5163 5.10648 14.639 5.16524 14.6963Z" fill="#646464" fill-opacity="0.9"/>
<path d="M3.72146 15.5904C3.71534 15.881 3.48826 16.0518 3.28014 15.9635C2.72926 15.7297 2.17836 15.4803 1.63911 15.2241C1.59967 15.2054 1.56481 15.1792 1.53673 15.1472C1.50864 15.1152 1.48794 15.0781 1.47592 15.0383C1.4639 14.9984 1.46083 14.9567 1.4669 14.9157C1.47296 14.8746 1.48804 14.8353 1.51117 14.8C1.52995 14.7629 1.5565 14.7297 1.58924 14.7024C1.62198 14.6751 1.66025 14.6543 1.70177 14.6411C1.74328 14.628 1.78719 14.6228 1.8309 14.6259C1.8746 14.6289 1.9172 14.6402 1.95617 14.659C2.48563 14.8882 3.01449 15.1244 3.53354 15.3743C3.62964 15.4213 3.68535 15.5474 3.72146 15.5904Z" fill="#646464" fill-opacity="0.9"/>
</svg>
