<svg width="24" height="23" viewBox="0 0 24 23" fill="none" xmlns="http://www.w3.org/2000/svg">
<path d="M20.6469 3.55774C20.8619 3.58641 21.0614 3.43489 21.09 3.21794L21.3365 1.35084C21.365 1.13445 21.2131 0.936214 20.9967 0.9077L19.13 0.66123C18.9121 0.632311 18.7153 0.785046 18.6868 1.00103C18.6583 1.21742 18.8102 1.41566 19.0266 1.44417L19.8847 1.55747L1.54551 11.1137C1.35188 11.2143 1.2771 11.4531 1.37776 11.6463C1.47888 11.8413 1.71913 11.9142 1.91039 11.8141L20.4328 2.1624L20.3071 3.11455C20.2785 3.33094 20.4305 3.52918 20.6469 3.55774Z" fill="#18120F"/>
<path d="M23.6055 7.62012H19.3676C19.1493 7.62012 18.9727 7.79677 18.9727 8.01508V21.9467C18.9727 22.165 19.1493 22.3417 19.3676 22.3417H23.6055C23.8238 22.3417 24.0004 22.165 24.0004 21.9467V8.01508C24.0004 7.79677 23.8238 7.62012 23.6055 7.62012ZM23.2105 21.5518H19.7625V8.41003H23.2105V21.5518Z" fill="#18120F"/>
<path d="M17.677 10.1389V21.9475C17.677 22.1647 17.4993 22.3425 17.2821 22.3425H13.0444C12.8232 22.3425 12.6494 22.1648 12.6494 21.9475V10.1389C12.6494 9.92161 12.8232 9.7439 13.0444 9.7439H17.2821C17.4993 9.7439 17.677 9.92161 17.677 10.1389Z" fill="#18120F"/>
<path d="M10.957 22.3418C11.1754 22.3418 11.352 22.1652 11.352 21.9468V13.279C11.352 13.0607 11.1754 12.884 10.957 12.884H6.71918C6.50087 12.884 6.32422 13.0607 6.32422 13.279V21.9468C6.32422 22.1652 6.50087 22.3418 6.71918 22.3418H10.957ZM7.11409 13.6739H10.5621V21.5519H7.11409V13.6739Z" fill="#18120F"/>
<path d="M5.02758 16.122V21.9474C5.02758 22.1646 4.84987 22.3424 4.63262 22.3424H0.394958C0.177762 22.3424 0 22.1646 0 21.9474V16.122C0 15.9048 0.177711 15.7271 0.394958 15.7271H4.63267C4.84987 15.7271 5.02758 15.9048 5.02758 16.122Z" fill="#18120F"/>
</svg>
