<svg width="22" height="22" viewBox="0 0 22 22" fill="none" xmlns="http://www.w3.org/2000/svg">
<path d="M13.0643 21.9549H8.93726C8.4045 21.9549 7.94354 21.596 7.82953 21.0921L7.36808 19.024C6.75248 18.7628 6.16877 18.4363 5.62769 18.0503L3.5449 18.6924C3.03695 18.8493 2.48478 18.6423 2.21835 18.1952L0.150291 14.7362C-0.113218 14.2888 -0.0224337 13.7246 0.369115 13.3761L1.98478 11.949C1.91131 11.3025 1.91131 10.6502 1.98478 10.0038L0.369115 8.57999C-0.0230105 8.23131 -0.113831 7.66636 0.150291 7.21879L2.21381 3.75759C2.48024 3.31047 3.03242 3.10348 3.54036 3.26031L5.62316 3.90249C5.89987 3.70397 6.18794 3.52072 6.48598 3.35362C6.77208 3.1974 7.06653 3.05596 7.36808 2.92989L7.83067 0.863927C7.94413 0.360027 8.40459 0.000542718 8.93726 0H13.0643C13.597 0.000542718 14.0574 0.360027 14.1709 0.863927L14.638 2.93099C14.9564 3.06657 15.2664 3.21978 15.5666 3.38984C15.8466 3.54662 16.1172 3.7185 16.3773 3.90469L18.4612 3.26251C18.9688 3.10626 19.5203 3.31318 19.7866 3.75978L21.8501 7.22098C22.1136 7.6683 22.0229 8.23257 21.6313 8.58109L20.0156 10.0082C20.0891 10.6546 20.0891 11.3069 20.0156 11.9534L21.6313 13.3804C22.0229 13.729 22.1136 14.2932 21.8501 14.7406L19.7866 18.2017C19.5203 18.6484 18.9688 18.8553 18.4612 18.699L16.3773 18.0568C16.1136 18.2449 15.8395 18.419 15.5564 18.5783C15.2591 18.745 14.9525 18.8957 14.638 19.0295L14.1709 21.0921C14.057 21.5956 13.5966 21.9545 13.0643 21.9549ZM6.03473 15.6198L6.96444 16.2785C7.17403 16.428 7.39247 16.5654 7.61865 16.6902C7.83146 16.8095 8.05059 16.9179 8.27512 17.0151L9.33296 17.4641L9.8511 19.7595H12.1527L12.6709 17.463L13.7287 17.014C14.1905 16.8168 14.6288 16.5717 15.036 16.2829L15.9668 15.6242L18.2809 16.3378L19.4317 14.4079L17.6369 12.8239L17.7639 11.713C17.8197 11.2271 17.8197 10.7367 17.7639 10.2508L17.6369 9.13984L19.4329 7.5525L18.2809 5.62156L15.9668 6.3351L15.036 5.67645C14.6287 5.38633 14.1904 5.13938 13.7287 4.93986L12.6709 4.49088L12.1527 2.19549H9.8511L9.33069 4.49198L8.27512 4.93986C8.05041 5.03542 7.83125 5.14279 7.61865 5.2615C7.39386 5.38591 7.17657 5.52262 6.96784 5.67096L6.03699 6.32961L3.72404 5.61608L2.57096 7.5525L4.36577 9.13436L4.23878 10.2464C4.183 10.7323 4.183 11.2227 4.23878 11.7086L4.36577 12.8195L2.57096 14.4035L3.72177 16.3334L6.03473 15.6198ZM10.9962 15.3685C8.49152 15.3685 6.46103 13.4025 6.46103 10.9775C6.46103 8.5524 8.49152 6.58648 10.9962 6.58648C13.501 6.58648 15.5315 8.5524 15.5315 10.9775C15.5283 13.4013 13.4997 15.3654 10.9962 15.3685ZM10.9962 8.78198C9.75745 8.78319 8.74892 9.74673 8.73117 10.946C8.71342 12.1453 9.69301 13.1364 10.9313 13.172C12.1695 13.2076 13.2081 12.2745 13.2638 11.0763V11.5154V10.9775C13.2638 9.76494 12.2486 8.78198 10.9962 8.78198Z" fill="#646464" fill-opacity="0.9"/>
</svg>
