<svg width="22" height="22" viewBox="0 0 22 22" fill="none" xmlns="http://www.w3.org/2000/svg">
<path d="M10.9853 21.9375H1.47003C1.37927 21.9399 1.28846 21.9358 1.19816 21.9254C1.12115 21.9216 1.04867 21.8841 0.99666 21.8211C0.944652 21.7582 0.917377 21.675 0.920835 21.5898C0.920835 21.5065 0.920835 21.4226 0.920835 21.3387C0.920835 17.3683 0.920835 13.3974 0.920835 9.42614C0.920835 9.23684 0.884428 9.11333 0.734539 8.98981C0.280016 8.61658 0.0190714 8.10707 0.00996886 7.4707C-0.00277476 6.61683 -0.000348292 5.76229 0.00147223 4.90774C0.00515875 4.81657 0.0258177 4.72721 0.0621561 4.64527C0.64897 3.23558 1.24549 1.82589 1.82199 0.411499C1.94336 0.11882 2.09567 -0.00066847 2.38999 2.81147e-06C8.12826 0.00761067 13.8663 0.00761067 19.6042 2.81147e-06C19.8961 2.81147e-06 20.0557 0.110092 20.1764 0.406128C20.7548 1.82253 21.3513 3.22954 21.9363 4.64192C21.9753 4.73153 21.997 4.82915 22 4.92855C22 5.76631 22 6.60676 21.9939 7.44183C21.9866 8.09768 21.7221 8.62127 21.253 9.00391C21.1019 9.12742 21.0643 9.25094 21.0643 9.44024C21.0679 13.4026 21.0689 17.3652 21.0673 21.328C21.0673 21.865 20.9987 21.9375 20.5157 21.9382L13.2718 21.9549C12.5072 21.9549 11.7428 21.9549 10.9786 21.9549L10.9853 21.9375ZM9.4797 8.53871C8.6908 9.67586 7.25441 9.71681 6.4194 8.53871C6.03467 9.08312 5.54313 9.40063 4.90716 9.40466C4.2712 9.40869 3.76691 9.08446 3.36822 8.532C2.90763 9.20328 2.30807 9.47649 1.56591 9.39325V21.1991H12.5661V20.854C12.5661 17.9219 12.5661 14.9906 12.5661 12.0603C12.5661 11.5789 12.6444 11.493 13.0849 11.493H18.061C18.4809 11.493 18.5495 11.5702 18.5495 12.03V21.2058H20.4095V9.39459C19.6691 9.47447 19.0872 9.1724 18.6369 8.53132C18.24 9.10124 17.743 9.40399 17.1071 9.40399C16.4711 9.40399 15.9747 9.06835 15.5815 8.53132C14.9291 9.54429 13.4575 9.83495 12.5254 8.54676C11.7456 9.69667 10.2704 9.69801 9.4797 8.53871ZM0.834668 4.50095H21.1796C20.6753 3.29264 20.1783 2.1132 19.6922 0.927043C19.6248 0.762579 19.5453 0.711562 19.3888 0.711562C13.8014 0.716037 8.21464 0.716037 2.62848 0.711562C2.45553 0.711562 2.38029 0.778689 2.31232 0.947181C1.87964 2.00512 1.43604 3.05836 0.996082 4.11295C0.942074 4.23848 0.890498 4.36602 0.834668 4.50095ZM17.905 12.2207H13.2294V21.1937H17.905V12.2207ZM3.69106 5.26419V5.51928C3.69106 6.17244 3.67164 6.82627 3.69773 7.47741C3.72686 8.20307 4.29789 8.726 4.97937 8.69914C5.59592 8.67498 6.09717 8.08224 6.0996 7.37336C6.0996 6.97999 6.0996 6.58662 6.0996 6.19325V5.26151L3.69106 5.26419ZM18.9549 5.26822V5.52935C18.9549 6.19124 18.927 6.85513 18.9707 7.51299C18.9931 7.82965 19.1207 8.12594 19.3287 8.34489C19.5367 8.56385 19.8105 8.69002 20.0976 8.69914C20.7275 8.71928 21.29 8.28228 21.341 7.61032C21.4017 6.83969 21.3543 6.05899 21.3543 5.26822H18.9549ZM0.642905 5.26822C0.642905 5.86566 0.642905 6.44968 0.642905 7.03369C0.642905 7.24179 0.631374 7.4566 0.671425 7.65732C0.809177 8.35142 1.35109 8.76493 2.0004 8.69646C2.57872 8.63537 3.04538 8.05136 3.05327 7.36598C3.05934 6.79606 3.05327 6.2248 3.05327 5.65757V5.26822H0.642905ZM15.9322 5.26822C15.9239 5.2937 15.9178 5.32 15.914 5.34676C15.914 6.02476 15.914 6.70253 15.914 7.38008C15.914 8.04532 16.374 8.62933 16.9456 8.69847C17.5913 8.77768 18.1447 8.35813 18.2807 7.6741C18.3075 7.5272 18.3201 7.37755 18.3183 7.22769C18.3219 6.57722 18.3183 5.92675 18.3183 5.26822H15.9322ZM15.2459 5.27695H12.8671C12.8671 6.05832 12.8671 6.8209 12.8671 7.58012C12.8699 7.62166 12.8773 7.66267 12.8889 7.70229C13.043 8.34873 13.5352 8.73606 14.1633 8.7025C14.7021 8.67296 15.1949 8.20978 15.2356 7.57408C15.2829 6.8115 15.2459 6.04892 15.2459 5.27024V5.27695ZM6.74467 5.26889C6.74467 5.96837 6.74467 6.63697 6.74467 7.30489C6.74303 7.38024 6.74627 7.45561 6.75438 7.53044C6.85269 8.28228 7.38671 8.76023 8.07851 8.69914C8.75817 8.63873 9.18052 7.93388 9.15139 7.34853C9.12166 6.74437 9.14472 6.14022 9.14472 5.54009V5.27158L6.74467 5.26889ZM9.84501 5.26889C9.83434 5.2901 9.82598 5.31263 9.82013 5.33602C9.82013 6.03147 9.81225 6.72692 9.81589 7.42237C9.8166 7.59205 9.84761 7.7599 9.90714 7.91628C9.96666 8.07267 10.0535 8.2145 10.1628 8.33364C10.272 8.45278 10.4014 8.54687 10.5436 8.61052C10.6858 8.67416 10.8379 8.70611 10.9913 8.70452C11.6589 8.70854 12.1892 8.15339 12.1947 7.42908C12.1995 6.77592 12.1947 6.12209 12.1947 5.46894C12.1947 5.40181 12.1838 5.34005 12.1771 5.26755L9.84501 5.26889Z" fill="#646464" fill-opacity="0.9"/>
<path d="M7.07007 11.3098H10.8616C11.2257 11.3098 11.3222 11.4186 11.3222 11.8106C11.3222 14.0388 11.3222 16.2666 11.3222 18.4939C11.3222 18.8691 11.2172 18.9866 10.8737 18.9866C8.33917 18.9866 5.804 18.9866 3.26822 18.9866C2.93871 18.9866 2.83008 18.8644 2.83008 18.508C2.83008 16.2632 2.83008 14.0187 2.83008 11.7744C2.83008 11.432 2.94052 11.3105 3.25487 11.3098C4.5272 11.3085 5.79894 11.3085 7.07007 11.3098ZM10.6814 12.0355H3.47879V18.2522H10.6814V12.0355Z" fill="#646464" fill-opacity="0.9"/>
</svg>
